<svg xmlns="http://www.w3.org/2000/svg" viewBox="0 0 200 200" role="img" aria-label="Product illustration">
  <defs>
    <linearGradient id="card" x1="0" y1="0" x2="1" y2="1">
      <stop offset="0%" stop-color="#fef3c7"/>
      <stop offset="50%" stop-color="#f9a8d4"/>
      <stop offset="100%" stop-color="#93c5fd"/>
    </linearGradient>
    <linearGradient id="shirt" x1="0" y1="0" x2="0" y2="1">
      <stop offset="0%" stop-color="#ffffff"/>
      <stop offset="100%" stop-color="#dbeafe"/>
    </linearGradient>
    <linearGradient id="shadow" x1="0" y1="0" x2="1" y2="1">
      <stop offset="0%" stop-color="#1f5eff"/>
      <stop offset="100%" stop-color="#7c3aed"/>
    </linearGradient>
  </defs>
  <rect width="200" height="200" rx="24" fill="url(#card)"/>
  <circle cx="150" cy="46" r="24" fill="#ffffff" opacity="0.35"/>
  <circle cx="52" cy="44" r="16" fill="#fef08a" opacity="0.5"/>
  <rect x="34" y="26" width="132" height="148" rx="22" fill="#ffffff" opacity="0.72"/>
  <path d="M58 68l20-14h44l20 14 14 8-9 30-13-4v52H66V102l-13 4-9-30z" fill="url(#shadow)" opacity="0.2"/>
  <path d="M60 66l20-14h40l20 14 14 8-8 28-14-4v54H68V98l-14 4-8-28z" fill="url(#shirt)"/>
  <path d="M82 56c4 8 10 12 18 12s14-4 18-12" fill="none" stroke="#1f5eff" stroke-width="5" stroke-linecap="round"/>
  <path d="M76 118h48" stroke="#f59e0b" stroke-width="6" stroke-linecap="round"/>
  <circle cx="100" cy="144" r="16" fill="#7c3aed" opacity="0.18"/>
</svg>