<svg xmlns="http://www.w3.org/2000/svg" viewBox="0 0 400 400" role="img" aria-label="T-shirt illustration">
  <defs>
    <linearGradient id="bg" x1="0" y1="0" x2="1" y2="1">
      <stop offset="0%" stop-color="#ffe7c7"/>
      <stop offset="50%" stop-color="#f9a8d4"/>
      <stop offset="100%" stop-color="#1f5eff"/>
    </linearGradient>
    <linearGradient id="shirt" x1="0" y1="0" x2="0" y2="1">
      <stop offset="0%" stop-color="#fff7ed"/>
      <stop offset="100%" stop-color="#cbd5e1"/>
    </linearGradient>
    <linearGradient id="accent" x1="0" y1="0" x2="1" y2="1">
      <stop offset="0%" stop-color="#1f5eff"/>
      <stop offset="100%" stop-color="#7c3aed"/>
    </linearGradient>
  </defs>
  <rect width="400" height="400" rx="32" fill="url(#bg)"/>
  <circle cx="308" cy="84" r="62" fill="#ffffff" opacity="0.18"/>
  <circle cx="88" cy="86" r="34" fill="#fef3c7" opacity="0.4"/>
  <path d="M126 135l46-30h56l46 30 32 12-20 57-24-8v125H114V196l-24 8-20-57z" fill="#111827" opacity="0.18"/>
  <path d="M132 129l40-25h56l40 25 28 11-17 49-21-7v113H142V182l-21 7-17-49z" fill="url(#shirt)"/>
  <path d="M175 103c7 12 18 19 25 19s18-7 25-19" fill="none" stroke="url(#accent)" stroke-width="10" stroke-linecap="round"/>
  <path d="M155 147h88" stroke="#94a3b8" stroke-width="6" stroke-linecap="round"/>
  <path d="M170 198h60" stroke="#1f5eff" stroke-width="8" stroke-linecap="round" opacity="0.55"/>
  <path d="M170 223h60" stroke="#f59e0b" stroke-width="8" stroke-linecap="round" opacity="0.55"/>
  <rect x="167" y="184" width="66" height="108" rx="16" fill="#ffffff" opacity="0.08"/>
</svg>